<svg width="361" height="103" viewBox="0 0 361 103" fill="none" xmlns="http://www.w3.org/2000/svg">
<rect width="103" height="103" rx="20" fill="black" fill-opacity="0.5"/>
<rect x="9" y="9" width="84.1198" height="84.1198" rx="30" fill="black"/>
<path d="M64.7525 57.7232C65.013 55.5385 65.2083 53.3537 65.2083 51.1027C65.2083 48.8517 65.013 46.6669 64.7525 44.4822H75.7569C76.2779 46.6007 76.6034 48.8186 76.6034 51.1027C76.6034 53.3868 76.2779 55.6047 75.7569 57.7232M58.9899 76.1283C60.9433 72.4539 62.4409 68.4816 63.4828 64.3438H73.0872C69.933 69.8662 64.9287 74.0495 58.9899 76.1283ZM58.1759 57.7232H42.939C42.6134 55.5385 42.4181 53.3537 42.4181 51.1027C42.4181 48.8517 42.6134 46.6338 42.939 44.4822H58.1759C58.4689 46.6338 58.6968 48.8517 58.6968 51.1027C58.6968 53.3537 58.4689 55.5385 58.1759 57.7232ZM50.5575 77.4524C47.8552 73.4801 45.6738 69.0775 44.339 64.3438H56.7759C55.4411 69.0775 53.2597 73.4801 50.5575 77.4524ZM37.5345 37.8616H28.0277C31.1495 32.3242 36.1501 28.1343 42.0925 26.0771C40.1391 29.7515 38.674 33.7238 37.5345 37.8616ZM28.0277 64.3438H37.5345C38.674 68.4816 40.1391 72.4539 42.0925 76.1283C36.1626 74.0484 31.169 69.8644 28.0277 64.3438ZM25.358 57.7232C24.8371 55.6047 24.5115 53.3868 24.5115 51.1027C24.5115 48.8186 24.8371 46.6007 25.358 44.4822H36.3624C36.102 46.6669 35.9066 48.8517 35.9066 51.1027C35.9066 53.3537 36.102 55.5385 36.3624 57.7232M50.5575 24.7198C53.2597 28.6922 55.4411 33.1279 56.7759 37.8616H44.339C45.6738 33.1279 47.8552 28.6922 50.5575 24.7198ZM73.0872 37.8616H63.4828C62.4638 33.7617 60.9549 29.8041 58.9899 26.0771C64.9804 28.1625 69.9617 32.3666 73.0872 37.8616ZM50.5575 18C32.5532 18 18 32.8962 18 51.1027C18 59.8821 21.4302 68.3019 27.5359 74.5098C30.5591 77.5837 34.1482 80.022 38.0983 81.6856C42.0483 83.3492 46.282 84.2054 50.5575 84.2054C59.1922 84.2054 67.4734 80.7178 73.5791 74.5098C79.6848 68.3019 83.1149 59.8821 83.1149 51.1027C83.1149 46.7556 82.2728 42.451 80.6367 38.4348C79.0005 34.4186 76.6023 30.7694 73.5791 27.6956C70.5558 24.6217 66.9667 22.1834 63.0167 20.5198C59.0666 18.8562 54.833 18 50.5575 18Z" fill="#4ECB71"/>
<path d="M110.65 46V24.94C112.09 24.88 113.35 24.83 114.43 24.79C115.51 24.75 116.42 24.73 117.16 24.73C117.92 24.71 118.49 24.7 118.87 24.7C120.75 24.7 122.31 24.85 123.55 25.15C124.79 25.43 125.76 25.87 126.46 26.47C127.16 27.07 127.66 27.85 127.96 28.81C128.26 29.77 128.41 30.93 128.41 32.29C128.41 33.69 128.26 34.89 127.96 35.89C127.68 36.89 127.21 37.71 126.55 38.35C125.91 38.99 125.07 39.47 124.03 39.79C122.99 40.09 121.71 40.24 120.19 40.24C119.75 40.24 119.38 40.24 119.08 40.24C118.8 40.24 118.55 40.24 118.33 40.24C118.11 40.24 117.89 40.24 117.67 40.24C117.45 40.22 117.19 40.2 116.89 40.18C116.59 40.16 116.21 40.14 115.75 40.12V46H110.65ZM115.75 28.84V36.13C116.07 36.15 116.35 36.17 116.59 36.19C116.83 36.19 117.05 36.2 117.25 36.22C117.47 36.22 117.68 36.22 117.88 36.22C118.1 36.22 118.34 36.22 118.6 36.22C119.58 36.22 120.37 36.15 120.97 36.01C121.59 35.87 122.06 35.64 122.38 35.32C122.72 35 122.95 34.58 123.07 34.06C123.19 33.54 123.25 32.91 123.25 32.17C123.25 31.55 123.19 31.03 123.07 30.61C122.95 30.17 122.74 29.81 122.44 29.53C122.16 29.25 121.76 29.05 121.24 28.93C120.72 28.79 120.06 28.72 119.26 28.72C119 28.72 118.76 28.72 118.54 28.72C118.32 28.72 118.08 28.73 117.82 28.75C117.58 28.75 117.29 28.76 116.95 28.78C116.63 28.8 116.23 28.82 115.75 28.84ZM148.238 46.3C147.618 46.3 146.998 46.21 146.378 46.03C145.758 45.87 145.138 45.61 144.518 45.25C143.918 44.89 143.298 44.43 142.658 43.87C142.018 43.29 141.358 42.6 140.678 41.8C140.018 41 139.328 40.07 138.608 39.01C138.488 39.03 138.318 39.04 138.098 39.04C137.898 39.04 137.728 39.04 137.588 39.04C137.328 39.04 137.038 39.04 136.718 39.04C136.398 39.04 136.098 39.03 135.818 39.01V46H130.718V25C131.898 24.92 132.978 24.86 133.958 24.82C134.958 24.78 135.868 24.75 136.688 24.73C137.528 24.71 138.298 24.7 138.998 24.7C140.658 24.7 142.068 24.83 143.228 25.09C144.408 25.33 145.368 25.71 146.108 26.23C146.868 26.75 147.418 27.43 147.758 28.27C148.098 29.09 148.268 30.08 148.268 31.24C148.268 32.42 148.088 33.44 147.728 34.3C147.368 35.14 146.848 35.83 146.168 36.37C145.508 36.91 144.728 37.33 143.828 37.63C144.348 38.27 144.838 38.82 145.298 39.28C145.778 39.74 146.218 40.13 146.618 40.45C147.038 40.77 147.428 41.01 147.788 41.17C148.168 41.31 148.528 41.38 148.868 41.38C148.928 41.38 149.008 41.38 149.108 41.38C149.208 41.36 149.288 41.35 149.348 41.35L149.378 46.21C149.238 46.23 149.078 46.25 148.898 46.27C148.718 46.29 148.498 46.3 148.238 46.3ZM138.938 35.32C139.638 35.32 140.248 35.26 140.768 35.14C141.288 35.02 141.708 34.83 142.028 34.57C142.368 34.29 142.618 33.94 142.778 33.52C142.958 33.08 143.048 32.54 143.048 31.9C143.048 31.12 142.928 30.5 142.688 30.04C142.448 29.56 142.038 29.21 141.458 28.99C140.898 28.77 140.118 28.66 139.118 28.66C138.798 28.66 138.518 28.66 138.278 28.66C138.058 28.66 137.828 28.67 137.588 28.69C137.368 28.69 137.118 28.7 136.838 28.72C136.558 28.74 136.218 28.76 135.818 28.78V35.23C136.118 35.25 136.388 35.27 136.628 35.29C136.868 35.29 137.108 35.3 137.348 35.32C137.588 35.32 137.828 35.32 138.068 35.32C138.328 35.32 138.618 35.32 138.938 35.32ZM160.048 42.31C160.588 42.31 161.088 42.24 161.548 42.1C162.028 41.96 162.448 41.74 162.808 41.44C163.168 41.12 163.468 40.71 163.708 40.21C163.968 39.69 164.158 39.04 164.278 38.26C164.418 37.46 164.488 36.53 164.488 35.47C164.488 34.41 164.418 33.49 164.278 32.71C164.158 31.93 163.968 31.29 163.708 30.79C163.468 30.27 163.158 29.86 162.778 29.56C162.418 29.24 162.008 29.02 161.548 28.9C161.088 28.76 160.588 28.69 160.048 28.69C159.508 28.69 159.008 28.76 158.548 28.9C158.108 29.02 157.708 29.23 157.348 29.53C156.988 29.83 156.678 30.24 156.418 30.76C156.158 31.28 155.958 31.94 155.818 32.74C155.678 33.52 155.608 34.44 155.608 35.5C155.608 36.58 155.678 37.51 155.818 38.29C155.958 39.05 156.158 39.69 156.418 40.21C156.678 40.73 156.988 41.15 157.348 41.47C157.708 41.77 158.108 41.99 158.548 42.13C159.008 42.25 159.508 42.31 160.048 42.31ZM160.048 46.3C158.848 46.3 157.748 46.18 156.748 45.94C155.748 45.7 154.848 45.32 154.048 44.8C153.268 44.28 152.608 43.6 152.068 42.76C151.548 41.92 151.138 40.9 150.838 39.7C150.558 38.5 150.418 37.1 150.418 35.5C150.418 33.9 150.548 32.51 150.808 31.33C151.088 30.13 151.488 29.11 152.008 28.27C152.548 27.43 153.208 26.75 153.988 26.23C154.768 25.69 155.658 25.3 156.658 25.06C157.678 24.82 158.808 24.7 160.048 24.7C161.308 24.7 162.438 24.82 163.438 25.06C164.458 25.3 165.348 25.68 166.108 26.2C166.888 26.72 167.538 27.4 168.058 28.24C168.598 29.06 168.998 30.07 169.258 31.27C169.538 32.45 169.678 33.83 169.678 35.41C169.678 37.05 169.538 38.48 169.258 39.7C168.978 40.9 168.568 41.92 168.028 42.76C167.508 43.6 166.858 44.28 166.078 44.8C165.298 45.32 164.408 45.7 163.408 45.94C162.408 46.18 161.288 46.3 160.048 46.3ZM170.031 45.22L170.961 41.32C171.541 41.46 172.091 41.59 172.611 41.71C173.131 41.81 173.621 41.89 174.081 41.95C174.561 42.01 174.991 42.04 175.371 42.04C176.151 42.04 176.791 41.92 177.291 41.68C177.791 41.44 178.161 41.04 178.401 40.48C178.641 39.92 178.761 39.15 178.761 38.17V29.44H171.531V25H183.831V39.37C183.831 40.89 183.581 42.17 183.081 43.21C182.601 44.25 181.841 45.03 180.801 45.55C179.781 46.05 178.461 46.3 176.841 46.3C176.101 46.3 175.341 46.25 174.561 46.15C173.801 46.07 173.031 45.96 172.251 45.82C171.491 45.66 170.751 45.46 170.031 45.22ZM186.91 46V25H201.97V29.32H191.98V33.28H201.22V37.36H191.98V41.71H202.51V46H186.91ZM203.826 35.83C203.826 33.17 204.206 31.03 204.966 29.41C205.726 27.77 206.856 26.58 208.356 25.84C209.876 25.08 211.776 24.7 214.056 24.7C214.756 24.7 215.386 24.72 215.946 24.76C216.526 24.78 217.066 24.83 217.566 24.91C218.086 24.99 218.586 25.09 219.066 25.21C219.546 25.31 220.036 25.44 220.536 25.6L219.516 29.62C218.916 29.48 218.336 29.37 217.776 29.29C217.216 29.19 216.666 29.12 216.126 29.08C215.606 29.02 215.076 28.99 214.536 28.99C213.556 28.99 212.716 29.11 212.016 29.35C211.316 29.59 210.746 29.97 210.306 30.49C209.866 31.01 209.536 31.71 209.316 32.59C209.096 33.45 208.986 34.52 208.986 35.8C208.986 36.96 209.086 37.94 209.286 38.74C209.506 39.54 209.836 40.18 210.276 40.66C210.716 41.14 211.276 41.49 211.956 41.71C212.656 41.93 213.476 42.04 214.416 42.04C215.296 42.04 216.226 41.97 217.206 41.83C218.206 41.69 219.126 41.51 219.966 41.29L220.866 45.28C220.386 45.42 219.886 45.56 219.366 45.7C218.846 45.82 218.286 45.92 217.686 46C217.106 46.1 216.476 46.17 215.796 46.21C215.116 46.27 214.376 46.3 213.576 46.3C211.956 46.3 210.536 46.11 209.316 45.73C208.096 45.35 207.076 44.75 206.256 43.93C205.456 43.11 204.846 42.03 204.426 40.69C204.026 39.35 203.826 37.73 203.826 35.83ZM239.293 29.47H233.113V46H228.043V29.47H221.863V25H239.293V29.47Z" fill="black"/>
<path d="M112.06 78.97L118.36 68.23L112.57 58.03L118.63 57.97L121.84 64.96L124.99 57.97L130.78 58.03L125.05 68.2L131.11 78.97L125.11 79.06L121.66 71.59L118.15 79.06L112.06 78.97Z" fill="#4ECB71"/>
<path d="M112.06 78.97L111.197 78.464L110.329 79.9445L112.045 79.9699L112.06 78.97ZM118.36 68.23L119.223 68.736L119.515 68.2382L119.23 67.7363L118.36 68.23ZM112.57 58.03L112.56 57.03L110.862 57.0469L111.7 58.5237L112.57 58.03ZM118.63 57.97L119.539 57.5527L119.268 56.9636L118.62 56.97L118.63 57.97ZM121.84 64.96L120.931 65.3773L121.849 67.3749L122.752 65.3709L121.84 64.96ZM124.99 57.97L125 56.9701L124.347 56.9633L124.078 57.5591L124.99 57.97ZM130.78 58.03L131.651 58.5209L132.481 57.0476L130.79 57.0301L130.78 58.03ZM125.05 68.2L124.179 67.7091L123.902 68.1997L124.178 68.6904L125.05 68.2ZM131.11 78.97L131.125 79.9699L132.806 79.9447L131.982 78.4796L131.11 78.97ZM125.11 79.06L124.202 79.4793L124.475 80.0696L125.125 80.0599L125.11 79.06ZM121.66 71.59L122.568 71.1707L121.668 69.2219L120.755 71.1647L121.66 71.59ZM118.15 79.06L118.135 80.0599L118.781 80.0694L119.055 79.4853L118.15 79.06ZM112.923 79.476L119.223 68.736L117.497 67.724L111.197 78.464L112.923 79.476ZM119.23 67.7363L113.44 57.5363L111.7 58.5237L117.49 68.7237L119.23 67.7363ZM112.58 59.0299L118.64 58.9699L118.62 56.97L112.56 57.03L112.58 59.0299ZM117.721 58.3873L120.931 65.3773L122.749 64.5427L119.539 57.5527L117.721 58.3873ZM122.752 65.3709L125.902 58.3809L124.078 57.5591L120.928 64.5491L122.752 65.3709ZM124.98 58.9699L130.77 59.0299L130.79 57.0301L125 56.9701L124.98 58.9699ZM129.909 57.5391L124.179 67.7091L125.921 68.6909L131.651 58.5209L129.909 57.5391ZM124.178 68.6904L130.238 79.4604L131.982 78.4796L125.922 67.7096L124.178 68.6904ZM131.095 77.9701L125.095 78.0601L125.125 80.0599L131.125 79.9699L131.095 77.9701ZM126.018 78.6407L122.568 71.1707L120.752 72.0093L124.202 79.4793L126.018 78.6407ZM120.755 71.1647L117.245 78.6347L119.055 79.4853L122.565 72.0153L120.755 71.1647ZM118.165 78.0601L112.075 77.9701L112.045 79.9699L118.135 80.0599L118.165 78.0601Z" fill="black"/>
</svg>
