<svg width="361" height="103" viewBox="0 0 361 103" fill="none" xmlns="http://www.w3.org/2000/svg">
<rect width="103" height="103" rx="20" fill="black" fill-opacity="0.4"/>
<rect x="9" y="9" width="84.1198" height="84.1198" rx="30" fill="black"/>
<path d="M110.65 46V24.94C112.09 24.88 113.35 24.83 114.43 24.79C115.51 24.75 116.42 24.73 117.16 24.73C117.92 24.71 118.49 24.7 118.87 24.7C120.75 24.7 122.31 24.85 123.55 25.15C124.79 25.43 125.76 25.87 126.46 26.47C127.16 27.07 127.66 27.85 127.96 28.81C128.26 29.77 128.41 30.93 128.41 32.29C128.41 33.69 128.26 34.89 127.96 35.89C127.68 36.89 127.21 37.71 126.55 38.35C125.91 38.99 125.07 39.47 124.03 39.79C122.99 40.09 121.71 40.24 120.19 40.24C119.75 40.24 119.38 40.24 119.08 40.24C118.8 40.24 118.55 40.24 118.33 40.24C118.11 40.24 117.89 40.24 117.67 40.24C117.45 40.22 117.19 40.2 116.89 40.18C116.59 40.16 116.21 40.14 115.75 40.12V46H110.65ZM115.75 28.84V36.13C116.07 36.15 116.35 36.17 116.59 36.19C116.83 36.19 117.05 36.2 117.25 36.22C117.47 36.22 117.68 36.22 117.88 36.22C118.1 36.22 118.34 36.22 118.6 36.22C119.58 36.22 120.37 36.15 120.97 36.01C121.59 35.87 122.06 35.64 122.38 35.32C122.72 35 122.95 34.58 123.07 34.06C123.19 33.54 123.25 32.91 123.25 32.17C123.25 31.55 123.19 31.03 123.07 30.61C122.95 30.17 122.74 29.81 122.44 29.53C122.16 29.25 121.76 29.05 121.24 28.93C120.72 28.79 120.06 28.72 119.26 28.72C119 28.72 118.76 28.72 118.54 28.72C118.32 28.72 118.08 28.73 117.82 28.75C117.58 28.75 117.29 28.76 116.95 28.78C116.63 28.8 116.23 28.82 115.75 28.84ZM148.238 46.3C147.618 46.3 146.998 46.21 146.378 46.03C145.758 45.87 145.138 45.61 144.518 45.25C143.918 44.89 143.298 44.43 142.658 43.87C142.018 43.29 141.358 42.6 140.678 41.8C140.018 41 139.328 40.07 138.608 39.01C138.488 39.03 138.318 39.04 138.098 39.04C137.898 39.04 137.728 39.04 137.588 39.04C137.328 39.04 137.038 39.04 136.718 39.04C136.398 39.04 136.098 39.03 135.818 39.01V46H130.718V25C131.898 24.92 132.978 24.86 133.958 24.82C134.958 24.78 135.868 24.75 136.688 24.73C137.528 24.71 138.298 24.7 138.998 24.7C140.658 24.7 142.068 24.83 143.228 25.09C144.408 25.33 145.368 25.71 146.108 26.23C146.868 26.75 147.418 27.43 147.758 28.27C148.098 29.09 148.268 30.08 148.268 31.24C148.268 32.42 148.088 33.44 147.728 34.3C147.368 35.14 146.848 35.83 146.168 36.37C145.508 36.91 144.728 37.33 143.828 37.63C144.348 38.27 144.838 38.82 145.298 39.28C145.778 39.74 146.218 40.13 146.618 40.45C147.038 40.77 147.428 41.01 147.788 41.17C148.168 41.31 148.528 41.38 148.868 41.38C148.928 41.38 149.008 41.38 149.108 41.38C149.208 41.36 149.288 41.35 149.348 41.35L149.378 46.21C149.238 46.23 149.078 46.25 148.898 46.27C148.718 46.29 148.498 46.3 148.238 46.3ZM138.938 35.32C139.638 35.32 140.248 35.26 140.768 35.14C141.288 35.02 141.708 34.83 142.028 34.57C142.368 34.29 142.618 33.94 142.778 33.52C142.958 33.08 143.048 32.54 143.048 31.9C143.048 31.12 142.928 30.5 142.688 30.04C142.448 29.56 142.038 29.21 141.458 28.99C140.898 28.77 140.118 28.66 139.118 28.66C138.798 28.66 138.518 28.66 138.278 28.66C138.058 28.66 137.828 28.67 137.588 28.69C137.368 28.69 137.118 28.7 136.838 28.72C136.558 28.74 136.218 28.76 135.818 28.78V35.23C136.118 35.25 136.388 35.27 136.628 35.29C136.868 35.29 137.108 35.3 137.348 35.32C137.588 35.32 137.828 35.32 138.068 35.32C138.328 35.32 138.618 35.32 138.938 35.32ZM160.048 42.31C160.588 42.31 161.088 42.24 161.548 42.1C162.028 41.96 162.448 41.74 162.808 41.44C163.168 41.12 163.468 40.71 163.708 40.21C163.968 39.69 164.158 39.04 164.278 38.26C164.418 37.46 164.488 36.53 164.488 35.47C164.488 34.41 164.418 33.49 164.278 32.71C164.158 31.93 163.968 31.29 163.708 30.79C163.468 30.27 163.158 29.86 162.778 29.56C162.418 29.24 162.008 29.02 161.548 28.9C161.088 28.76 160.588 28.69 160.048 28.69C159.508 28.69 159.008 28.76 158.548 28.9C158.108 29.02 157.708 29.23 157.348 29.53C156.988 29.83 156.678 30.24 156.418 30.76C156.158 31.28 155.958 31.94 155.818 32.74C155.678 33.52 155.608 34.44 155.608 35.5C155.608 36.58 155.678 37.51 155.818 38.29C155.958 39.05 156.158 39.69 156.418 40.21C156.678 40.73 156.988 41.15 157.348 41.47C157.708 41.77 158.108 41.99 158.548 42.13C159.008 42.25 159.508 42.31 160.048 42.31ZM160.048 46.3C158.848 46.3 157.748 46.18 156.748 45.94C155.748 45.7 154.848 45.32 154.048 44.8C153.268 44.28 152.608 43.6 152.068 42.76C151.548 41.92 151.138 40.9 150.838 39.7C150.558 38.5 150.418 37.1 150.418 35.5C150.418 33.9 150.548 32.51 150.808 31.33C151.088 30.13 151.488 29.11 152.008 28.27C152.548 27.43 153.208 26.75 153.988 26.23C154.768 25.69 155.658 25.3 156.658 25.06C157.678 24.82 158.808 24.7 160.048 24.7C161.308 24.7 162.438 24.82 163.438 25.06C164.458 25.3 165.348 25.68 166.108 26.2C166.888 26.72 167.538 27.4 168.058 28.24C168.598 29.06 168.998 30.07 169.258 31.27C169.538 32.45 169.678 33.83 169.678 35.41C169.678 37.05 169.538 38.48 169.258 39.7C168.978 40.9 168.568 41.92 168.028 42.76C167.508 43.6 166.858 44.28 166.078 44.8C165.298 45.32 164.408 45.7 163.408 45.94C162.408 46.18 161.288 46.3 160.048 46.3ZM170.031 45.22L170.961 41.32C171.541 41.46 172.091 41.59 172.611 41.71C173.131 41.81 173.621 41.89 174.081 41.95C174.561 42.01 174.991 42.04 175.371 42.04C176.151 42.04 176.791 41.92 177.291 41.68C177.791 41.44 178.161 41.04 178.401 40.48C178.641 39.92 178.761 39.15 178.761 38.17V29.44H171.531V25H183.831V39.37C183.831 40.89 183.581 42.17 183.081 43.21C182.601 44.25 181.841 45.03 180.801 45.55C179.781 46.05 178.461 46.3 176.841 46.3C176.101 46.3 175.341 46.25 174.561 46.15C173.801 46.07 173.031 45.96 172.251 45.82C171.491 45.66 170.751 45.46 170.031 45.22ZM186.91 46V25H201.97V29.32H191.98V33.28H201.22V37.36H191.98V41.71H202.51V46H186.91ZM203.826 35.83C203.826 33.17 204.206 31.03 204.966 29.41C205.726 27.77 206.856 26.58 208.356 25.84C209.876 25.08 211.776 24.7 214.056 24.7C214.756 24.7 215.386 24.72 215.946 24.76C216.526 24.78 217.066 24.83 217.566 24.91C218.086 24.99 218.586 25.09 219.066 25.21C219.546 25.31 220.036 25.44 220.536 25.6L219.516 29.62C218.916 29.48 218.336 29.37 217.776 29.29C217.216 29.19 216.666 29.12 216.126 29.08C215.606 29.02 215.076 28.99 214.536 28.99C213.556 28.99 212.716 29.11 212.016 29.35C211.316 29.59 210.746 29.97 210.306 30.49C209.866 31.01 209.536 31.71 209.316 32.59C209.096 33.45 208.986 34.52 208.986 35.8C208.986 36.96 209.086 37.94 209.286 38.74C209.506 39.54 209.836 40.18 210.276 40.66C210.716 41.14 211.276 41.49 211.956 41.71C212.656 41.93 213.476 42.04 214.416 42.04C215.296 42.04 216.226 41.97 217.206 41.83C218.206 41.69 219.126 41.51 219.966 41.29L220.866 45.28C220.386 45.42 219.886 45.56 219.366 45.7C218.846 45.82 218.286 45.92 217.686 46C217.106 46.1 216.476 46.17 215.796 46.21C215.116 46.27 214.376 46.3 213.576 46.3C211.956 46.3 210.536 46.11 209.316 45.73C208.096 45.35 207.076 44.75 206.256 43.93C205.456 43.11 204.846 42.03 204.426 40.69C204.026 39.35 203.826 37.73 203.826 35.83ZM239.293 29.47H233.113V46H228.043V29.47H221.863V25H239.293V29.47Z" fill="black"/>
<path d="M112.048 79.976L117.088 71.384L112.456 63.224L117.304 63.176L119.872 68.768L122.392 63.176L127.024 63.224L122.44 71.36L127.288 79.976L122.488 80.048L119.728 74.072L116.92 80.048L112.048 79.976Z" fill="black"/>
<path d="M112.048 79.976L111.185 79.47L110.317 80.9505L112.033 80.9759L112.048 79.976ZM117.088 71.384L117.951 71.89L118.243 71.3922L117.958 70.8903L117.088 71.384ZM112.456 63.224L112.446 62.224L110.748 62.2409L111.586 63.7177L112.456 63.224ZM117.304 63.176L118.213 62.7587L117.942 62.1696L117.294 62.176L117.304 63.176ZM119.872 68.768L118.963 69.1853L119.881 71.1829L120.784 69.1789L119.872 68.768ZM122.392 63.176L122.402 62.1761L121.749 62.1693L121.48 62.7651L122.392 63.176ZM127.024 63.224L127.895 63.7149L128.725 62.2416L127.034 62.2241L127.024 63.224ZM122.44 71.36L121.569 70.8691L121.292 71.3597L121.568 71.8504L122.44 71.36ZM127.288 79.976L127.303 80.9759L128.984 80.9507L128.16 79.4856L127.288 79.976ZM122.488 80.048L121.58 80.4673L121.853 81.0576L122.503 81.0479L122.488 80.048ZM119.728 74.072L120.636 73.6527L119.736 71.7039L118.823 73.6467L119.728 74.072ZM116.92 80.048L116.905 81.0479L117.551 81.0574L117.825 80.4733L116.92 80.048ZM112.911 80.482L117.951 71.89L116.225 70.878L111.185 79.47L112.911 80.482ZM117.958 70.8903L113.326 62.7303L111.586 63.7177L116.218 71.8777L117.958 70.8903ZM112.466 64.2239L117.314 64.176L117.294 62.176L112.446 62.224L112.466 64.2239ZM116.395 63.5933L118.963 69.1853L120.781 68.3507L118.213 62.7587L116.395 63.5933ZM120.784 69.1789L123.304 63.5869L121.48 62.7651L118.96 68.3571L120.784 69.1789ZM122.382 64.1759L127.014 64.2239L127.034 62.2241L122.402 62.1761L122.382 64.1759ZM126.153 62.7331L121.569 70.8691L123.311 71.8509L127.895 63.7149L126.153 62.7331ZM121.568 71.8504L126.416 80.4664L128.16 79.4856L123.312 70.8696L121.568 71.8504ZM127.273 78.9761L122.473 79.0481L122.503 81.0479L127.303 80.9759L127.273 78.9761ZM123.396 79.6287L120.636 73.6527L118.82 74.4913L121.58 80.4673L123.396 79.6287ZM118.823 73.6467L116.015 79.6227L117.825 80.4733L120.633 74.4973L118.823 73.6467ZM116.935 79.0481L112.063 78.9761L112.033 80.9759L116.905 81.0479L116.935 79.0481Z" fill="black"/>
<path d="M85.5 50.503C85.5 69.2824 70.2776 84.506 51.5 84.506C32.7224 84.506 17.5 69.2824 17.5 50.503C17.5 31.7235 32.7224 16.5 51.5 16.5C70.2776 16.5 85.5 31.7235 85.5 50.503Z" stroke="white" stroke-width="3"/>
<line x1="52.29" y1="17.1302" x2="52.29" y2="86.0206" stroke="white" stroke-width="3"/>
<line x1="16.3477" y1="50.0754" x2="85.2323" y2="50.0754" stroke="white" stroke-width="3"/>
<path d="M69.17 50.503C69.17 60.1119 67.1027 68.7368 63.8338 74.905C60.5296 81.1399 56.222 84.506 51.855 84.506C47.488 84.506 43.1804 81.1399 39.8762 74.905C36.6073 68.7368 34.54 60.1119 34.54 50.503C34.54 40.894 36.6073 32.2692 39.8762 26.101C43.1804 19.866 47.488 16.5 51.855 16.5C56.222 16.5 60.5296 19.866 63.8338 26.101C67.1027 32.2692 69.17 40.894 69.17 50.503Z" stroke="white" stroke-width="3"/>
<path d="M28.07 25.6509L30.1165 27.7727C33.9225 31.7187 38.7307 34.5543 44.0256 35.9755L44.498 36.1023C49.3174 37.3958 54.3926 37.3958 59.212 36.1023V36.1023C64.7889 34.6054 69.7765 31.443 73.509 27.0373L75.285 24.9408" stroke="white" stroke-width="3"/>
<path d="M28.07 75.0001L30.1165 72.8782C33.9225 68.9323 38.7307 66.0967 44.0256 64.6755L44.498 64.5487C49.3174 63.2551 54.3926 63.2551 59.212 64.5487V64.5487C64.7889 66.0456 69.7765 69.2079 73.509 73.6137L75.285 75.7101" stroke="white" stroke-width="3"/>
</svg>
